<svg id="Icons" xmlns="http://www.w3.org/2000/svg" viewBox="0 0 512 512"><defs><style>.cls-3{fill:#efb732}.cls-4{fill:#fbdb58}.cls-5{fill:#f9eaa5}.cls-6{fill:#f39e22}.cls-7{fill:#f9c744}.cls-9{fill:#ea792e}</style></defs><circle cx="256" cy="256" r="255.98" style="fill:#aa0dd1"/><path d="M0 256.24a255.63 255.63 0 0 0 103.44 205.32c113.54 84.25 273.87 60.52 358.12-53a254.76 254.76 0 0 0 49.93-136 76.89 76.89 0 0 1-14.24-6.88c-23.84-14.74-42-41.9-69.91-44.44-19.15-1.75-37.29 9.24-51.1 22.62s-24.87 29.51-39.4 42.12a112.53 112.53 0 0 1-157.7-10c-14.17-15.89-26.53-37.44-47.68-40-28.75-3.44-51.22 31.63-80 28.95-9.3-.87-17.72-5.66-26.73-8A54.5 54.5 0 0 0 0 256.24z" style="fill:#8d00af"/><path class="cls-3" d="M449.62 214.05a231.88 231.88 0 0 1-27.78 161.81 4.73 4.73 0 0 1-2.31 2 3.15 3.15 0 0 1-1 .22 2.61 2.61 0 0 1-1.59-.37c-1.51-.93-1.78-3.22-.65-5.15a225.4 225.4 0 0 0 27-157.33c-.41-2.12.62-4.14 2.36-4.51a2.66 2.66 0 0 1 1.62.17 4.21 4.21 0 0 1 2.35 3.16z"/><path class="cls-4" d="M449.62 214.05a231.88 231.88 0 0 1-27.78 161.81 4.73 4.73 0 0 1-2.31 2 3.15 3.15 0 0 1-1 .22 4.5 4.5 0 0 1 .44-3.95 228.55 228.55 0 0 0 27.37-159.49 4.29 4.29 0 0 1 .94-3.75 4.21 4.21 0 0 1 2.34 3.16z"/><path class="cls-3" d="M436.64 312.11q-1.41 5.64-3.13 11.23c-.27.86-1.23 1.13-1.67.45-7.09-9.63-23.91-7.91-19.11-40.82a.93.93 0 0 1 1.66-.51l.71 1q2.73 3.75 5.31 7.71a12.36 12.36 0 0 0 8 5.52 10.22 10.22 0 0 1 7.15 5.34 14.07 14.07 0 0 1 1.08 10.08z"/><path class="cls-4" d="M436.64 312.11c-.49 1.95-1 3.91-1.55 5.85-7.12-8.18-21.91-7.55-20-34.53q2.73 3.75 5.31 7.71a12.36 12.36 0 0 0 8 5.52 10.22 10.22 0 0 1 7.15 5.34 14.07 14.07 0 0 1 1.09 10.11z"/><path class="cls-5" d="M425.74 297.05c2.34 1.28 3.58 3.72 2.76 5.38s-3.35 1.86-5.65.51-3.51-3.7-2.74-5.28 3.29-1.89 5.63-.61zM433.52 305c1.14 1.61 1.29 3.65.37 4.53s-2.56.23-3.67-1.38-1.29-3.58-.4-4.45 2.56-.33 3.7 1.3z"/><path class="cls-3" d="M441.9 282.94q-.64 5.74-1.59 11.47c-.14.89-1.06 1.28-1.58.67-8.33-8.57-24.78-4.59-24.42-37.74a.93.93 0 0 1 1.59-.72l.83.85q3.19 3.36 6.29 6.92a12.33 12.33 0 0 0 8.62 4.4 10.23 10.23 0 0 1 7.8 4.32 13.88 13.88 0 0 1 2.46 9.83z"/><path class="cls-4" d="M441.9 282.94q-.33 3-.75 6c-8.14-7.13-22.73-4.52-24.42-31.44q3.19 3.36 6.29 6.92a12.33 12.33 0 0 0 8.62 4.4 10.23 10.23 0 0 1 7.8 4.32 13.88 13.88 0 0 1 2.46 9.8z"/><path class="cls-5" d="M429.09 269.53c2.49 1 4 3.19 3.45 4.94s-3.07 2.28-5.53 1.25-4-3.18-3.42-4.85 3.01-2.29 5.5-1.34zM437.86 276.32c1.34 1.43 1.77 3.43 1 4.41s-2.51.56-3.82-.88-1.76-3.36-1-4.33 2.47-.64 3.82.8z"/><path class="cls-3" d="M443.23 253.42c.08 3.86.07 7.71-.05 11.56 0 .9-.89 1.41-1.48.87-9.39-7.37-25.17-1.19-29.22-34.13a.93.93 0 0 1 1.47-.93l.94.74q3.62 2.91 7.16 6a12.25 12.25 0 0 0 9.12 3.21 10.29 10.29 0 0 1 8.31 3.25 13.93 13.93 0 0 1 3.75 9.43z"/><path class="cls-4" d="M443.23 253.42c0 2 .06 4 0 6-9-6-23.13-1.42-28.39-27.91q3.62 2.91 7.16 6a12.25 12.25 0 0 0 9.12 3.21 10.29 10.29 0 0 1 8.31 3.25 13.93 13.93 0 0 1 3.8 9.45z"/><path class="cls-5" d="M428.74 241.85c2.6.61 4.44 2.62 4.08 4.44s-2.74 2.67-5.31 2-4.36-2.62-4-4.35 2.64-2.71 5.23-2.09zM438.33 247.41c1.53 1.24 2.22 3.16 1.56 4.24s-2.41.89-3.9-.36-2.2-3.09-1.56-4.16 2.38-.96 3.9.28z"/><path class="cls-3" d="M440.61 224q.9 5.73 1.49 11.48c.1.9-.69 1.51-1.35 1.06-10.3-6.08-25.08 2.22-33.53-30.05a.93.93 0 0 1 1.33-1.12l1 .61q4 2.41 7.91 5.06a12.26 12.26 0 0 0 9.48 2 10.25 10.25 0 0 1 8.67 2.13 14 14 0 0 1 5 8.83z"/><path class="cls-4" d="M440.61 224c.31 2 .6 4 .85 6-9.74-4.75-23.09 1.71-31.88-24q4 2.41 7.91 5.06a12.26 12.26 0 0 0 9.48 2 10.25 10.25 0 0 1 8.67 2.13 14 14 0 0 1 4.97 8.81z"/><path class="cls-5" d="M424.7 214.4c2.66.26 4.75 2 4.64 3.87s-2.36 3-5 2.67-4.67-2-4.58-3.79 2.29-3.02 4.94-2.75zM435 218.65c1.67 1 2.61 2.85 2.1 4s-2.26 1.21-3.91.16-2.59-2.78-2.1-3.93 2.19-1.26 3.91-.23z"/><path class="cls-3" d="M438.6 197.77c.78 3.87 1.47 7.74 2 11.62.14.9-.62 1.52-1.31 1.08-10.7-6.15-24.95 2.93-35.34-30a.92.92 0 0 1 1.28-1.19c.35.21.71.41 1.07.61q4.17 2.39 8.27 5a12.59 12.59 0 0 0 9.67 1.85 10.47 10.47 0 0 1 8.86 2.05 15 15 0 0 1 5.5 8.98z"/><path class="cls-4" d="M438.6 197.77c.41 2 .79 4 1.14 6-10.08-4.8-23.05 2.24-33.4-23.89q4.17 2.39 8.27 5a12.59 12.59 0 0 0 9.67 1.85 10.47 10.47 0 0 1 8.86 2.05 15 15 0 0 1 5.46 8.99z"/><path class="cls-5" d="M422.07 188.24c2.69.22 4.89 2 4.88 3.87s-2.22 3.11-4.89 2.81-4.81-2-4.82-3.77 2.14-3.15 4.83-2.91zM432.63 192.42c1.74 1 2.78 2.87 2.32 4.05s-2.22 1.25-3.93.21-2.75-2.79-2.32-4 2.19-1.29 3.93-.26z"/><path class="cls-3" d="M451 315.7c-1 4-2.12 8-3.34 12-.28.92.34 1.73 1.1 1.38 10.08-5.48 27.46 8.9 36.1-36.75.18-1.19-.76-1.94-1.45-1.16l-1 1.05q-3.75 4.1-7.62 7.95c-2.84 2.82-6.28 4-9.52 3.38a10.46 10.46 0 0 0-8.74 2.78 18.27 18.27 0 0 0-5.53 9.37z"/><path class="cls-4" d="M451 315.7c-.52 2.08-1.07 4.17-1.65 6.24 9.54-4.45 24.78 6.05 33.09-29.75q-3.75 4.1-7.62 7.95c-2.84 2.82-6.28 4-9.52 3.38a10.46 10.46 0 0 0-8.74 2.78 18.27 18.27 0 0 0-5.56 9.4z"/><path class="cls-5" d="M467.53 305c-2.68.51-4.81 2.61-4.81 4.74s2.16 3.55 4.85 3.13 4.9-2.61 4.87-4.82-2.24-3.56-4.91-3.05zM457.06 310.17c-1.74 1.13-2.82 3.05-2.42 4.34s2.14 1.49 3.9.39 2.86-3.11 2.43-4.42-2.18-1.43-3.91-.31z"/><path class="cls-3" d="M456.57 284.58q-.69 6.14-1.7 12.24c-.15.94.57 1.66 1.28 1.21 9.26-6.75 28.37 5.2 30.85-41 0-1.2-1-1.81-1.6-1l-.81 1.18q-3.18 4.55-6.5 8.87c-2.43 3.16-5.7 4.77-9 4.6a10.46 10.46 0 0 0-8.29 3.9 18.19 18.19 0 0 0-4.23 10z"/><path class="cls-4" d="M456.57 284.58c-.24 2.13-.51 4.25-.8 6.38 8.86-5.67 25.35 2.72 28.82-33.76q-3.18 4.55-6.5 8.87c-2.43 3.16-5.7 4.77-9 4.6a10.46 10.46 0 0 0-8.29 3.9 18.19 18.19 0 0 0-4.23 10.01z"/><path class="cls-5" d="M471.56 271.84c-2.58.86-4.42 3.21-4.13 5.32s2.62 3.22 5.23 2.44 4.5-3.21 4.18-5.4-2.7-3.2-5.28-2.36zM461.88 278.32c-1.57 1.34-2.39 3.38-1.82 4.61s2.33 1.18 3.92-.14 2.41-3.45 1.82-4.68-2.35-1.11-3.92.21z"/><path class="cls-3" d="M458 253.1q.13 6.16-.05 12.33c0 .95.79 1.56 1.42 1 8.28-7.93 28.82 1.43 25.12-44.78-.15-1.19-1.25-1.66-1.71-.74l-.65 1.28q-2.53 4.93-5.26 9.67c-2 3.46-5 5.49-8.29 5.76a10.52 10.52 0 0 0-7.7 5A18.21 18.21 0 0 0 458 253.1z"/><path class="cls-4" d="M458 253.1q.07 3.21.06 6.41c8-6.79 25.49-.63 24.07-37.29q-2.53 4.93-5.26 9.67c-2 3.46-5 5.49-8.29 5.76a10.52 10.52 0 0 0-7.7 5A18.21 18.21 0 0 0 458 253.1z"/><path class="cls-5" d="M471.14 238.48c-2.44 1.2-3.94 3.78-3.38 5.82s3 2.85 5.51 1.73 4-3.79 3.42-5.91-3.1-2.83-5.55-1.64zM462.41 246.2c-1.38 1.54-1.91 3.66-1.19 4.8s2.46.86 3.87-.66 1.93-3.73 1.18-4.88-2.48-.8-3.86.74z"/><path class="cls-3" d="M455.19 221.69q1 6.1 1.59 12.25c.1.95 1 1.45 1.55.83 7.13-9 28.78-2.35 18.89-47.88-.31-1.17-1.46-1.5-1.8-.51-.15.45-.31.91-.47 1.36q-1.84 5.26-3.95 10.34c-1.5 3.71-4.22 6.13-7.44 6.83a10.53 10.53 0 0 0-7 6 18.26 18.26 0 0 0-1.37 10.78z"/><path class="cls-4" d="M455.19 221.69c.33 2.12.64 4.24.91 6.37 7-7.84 25.2-4 18.85-40.32q-1.84 5.26-3.95 10.34c-1.5 3.71-4.22 6.13-7.44 6.83a10.53 10.53 0 0 0-7 6 18.26 18.26 0 0 0-1.37 10.78z"/><path class="cls-5" d="M466.28 205.4c-2.26 1.52-3.41 4.28-2.57 6.24s3.37 2.43 5.69 1 3.48-4.31 2.6-6.34-3.46-2.42-5.72-.9zM458.66 214.24c-1.16 1.71-1.41 3.89-.54 4.93s2.56.53 3.75-1.17 1.41-4 .51-5-2.56-.47-3.72 1.24z"/><path class="cls-3" d="M445.88 195.74q2 5.76 3.79 11.63c.27.9 1.22 1.19 1.66.46 5.28-10.38 27.47-9.11 9.23-51.5-.52-1.08-1.68-1.11-1.81-.05-.07.48-.13 1-.19 1.45q-.76 5.64-1.77 11.14c-.75 4-2.91 7-5.87 8.49a11.23 11.23 0 0 0-5.62 7.47 18.6 18.6 0 0 0 .58 10.91z"/><path class="cls-4" d="M445.88 195.74c.71 2 1.39 4 2.05 6 5.4-9.22 23.68-9.8 10.63-44q-.76 5.64-1.77 11.14c-.75 4-2.91 7-5.87 8.49a11.23 11.23 0 0 0-5.62 7.47 18.6 18.6 0 0 0 .58 10.9z"/><path class="cls-5" d="M453.58 177.2c-1.89 2-2.48 5-1.31 6.74s3.71 1.59 5.67-.38 2.55-5.07 1.31-6.85-3.77-1.53-5.67.49zM447.87 187.66c-.81 1.94-.65 4.13.39 5s2.57-.07 3.41-2 .63-4.22-.43-5-2.56.06-3.37 2z"/><path class="cls-3" d="M432 172.3q1 5.87 1.77 11.69c.11.9-.68 1.46-1.37.95-10.83-7.23-25.16 1.37-35.6-32.82a.9.9 0 0 1 1.32-1.13l1.1.69q4.28 2.73 8.46 5.69a13.73 13.73 0 0 0 9.89 2.64 11.45 11.45 0 0 1 9.07 2.87 16.13 16.13 0 0 1 5.36 9.42z"/><path class="cls-4" d="M432 172.3q.55 3 1 6.09c-10.24-5.84-23.36.57-33.78-26.71q4.28 2.73 8.46 5.69a13.73 13.73 0 0 0 9.89 2.64 11.45 11.45 0 0 1 9.07 2.87 16.13 16.13 0 0 1 5.36 9.42z"/><path class="cls-5" d="M415.25 161.29c2.75.45 5 2.41 4.93 4.3s-2.33 2.93-5.06 2.43-4.88-2.33-4.86-4.16 2.23-3.01 4.99-2.57zM426 166.4c1.76 1.19 2.78 3.12 2.28 4.25s-2.31 1-4-.14-2.75-3-2.28-4.16 2.24-1.14 4 .05z"/><path class="cls-3" d="M435.26 171q3.4 5 6.55 10.21c.49.8 1.46.77 1.67-.09 2.31-11.88 23-18.58-5.38-54-.77-.89-1.82-.5-1.64.59l.24 1.51q.89 5.88 1.47 11.66c.42 4.24-.73 8-3.07 10.41a13 13 0 0 0-3.21 9.23 19.38 19.38 0 0 0 3.37 10.48z"/><path class="cls-4" d="M435.26 171c1.18 1.73 2.34 3.49 3.47 5.26 2.7-10.76 19.3-17.8-2-47.09q.89 5.88 1.47 11.66c.42 4.24-.73 8-3.07 10.41a13 13 0 0 0-3.21 9.23 19.38 19.38 0 0 0 3.34 10.53z"/><path class="cls-5" d="M437.5 150.13c-1.19 2.65-.95 5.78.58 7.09s3.85.3 5.12-2.32 1-5.9-.65-7.23-3.86-.19-5.05 2.46zM435 162.35c-.24 2.17.49 4.28 1.66 4.74s2.37-.91 2.63-3.11-.53-4.36-1.72-4.8-2.33.99-2.57 3.17z"/><path class="cls-6" d="M384.69 119.63v195.83a114.87 114.87 0 0 1-114.86 114.87h-27.66a114.87 114.87 0 0 1-114.86-114.87V119.63a22 22 0 0 1 34.93-17.86l16.51 11.91a22 22 0 0 0 25.81 0l38.53-27.83a22 22 0 0 1 25.82 0l38.53 27.83a22 22 0 0 0 25.81 0l16.51-11.91a22 22 0 0 1 34.93 17.86z"/><path class="cls-7" d="M342.94 169.69V302a77.6 77.6 0 0 1-77.6 77.6h-18.68a77.6 77.6 0 0 1-77.6-77.6V169.69a14.89 14.89 0 0 1 23.61-12.08l11.13 8a14.86 14.86 0 0 0 17.44 0l26-18.8a14.86 14.86 0 0 1 17.42 0l26.05 18.8a14.86 14.86 0 0 0 17.44 0l11.13-8a14.89 14.89 0 0 1 23.66 12.08z"/><path d="m309.12 143.48-9.64 7-24.56-17.72a32.32 32.32 0 0 0-37.86 0l-24.54 17.71-9.64-7c-21-15.52-51.48.16-51.26 26.21V302a95.15 95.15 0 0 0 95 95h18.68a95.15 95.15 0 0 0 95-95V169.69c.29-26.02-30.16-41.75-51.18-26.21zM343 302a77.62 77.62 0 0 1-77.61 77.6h-18.73a77.62 77.62 0 0 1-77.61-77.6V169.69A14.91 14.91 0 0 1 184 154.77a14.71 14.71 0 0 1 8.67 2.84l11.14 8.06a14.91 14.91 0 0 0 17.44 0l26-18.81a14.89 14.89 0 0 1 17.44 0l26 18.81a14.91 14.91 0 0 0 17.44 0l11.14-8.06a14.71 14.71 0 0 1 8.67-2.84A14.91 14.91 0 0 1 343 169.69z" style="fill:#fff"/><rect class="cls-7" x="360.38" y="158.54" width="24.31" height="111.4" rx="12.16"/><rect class="cls-7" x="360.38" y="283.41" width="24.31" height="37.37" rx="12.16"/><path class="cls-9" d="M301.19 286.06a45.73 45.73 0 0 1-33.62 39.05l-11.57 3.1-11.57-3.1a45.75 45.75 0 0 1-32.35-56l3.1-11.57 8 2.14 3.57 1c1 .26 1.95.57 2.9.89a55 55 0 0 1 16.13-37.32L256 214l10.22 10.22a55 55 0 0 1 16.13 37.32c.95-.32 1.92-.63 2.9-.89l3.57-1 8-2.14 3.1 11.57a45.37 45.37 0 0 1 1.27 16.98zM265 361.56a3.61 3.61 0 0 1-2.46.95h-12.9a3.43 3.43 0 0 1-.56 0 3.68 3.68 0 0 1-3-4.66l5.15-17.62h9.63l1.37 4.68 3.78 12.94a3.65 3.65 0 0 1-1.01 3.71z"/><path class="cls-6" d="M265 361.56a3.61 3.61 0 0 1-2.46.95h-12.9a3.43 3.43 0 0 1-.56 0 3.6 3.6 0 0 1-1.9-.91l4.09-14h9.63l1.37 4.68zM301.19 286.06a45.73 45.73 0 0 1-33.62 39.05l-11.57 3.1-11.57-3.1a45.73 45.73 0 0 1-33.62-39.05 44.88 44.88 0 0 1 1.27-6.68l3.1-11.57 8 2.15 3.57 1c1 .27 1.95.57 2.9.9a55 55 0 0 1 16.13-37.33L256 224.27l5.48 5.47 4.74 4.74a55.06 55.06 0 0 1 16.13 37.33c.95-.33 1.92-.63 2.9-.9l3.57-1 8-2.15 3.1 11.57a44.88 44.88 0 0 1 1.27 6.73z"/><path class="cls-9" d="M277.58 292.54a45.58 45.58 0 0 1-13.11 27.2l-8.47 8.47-8.47-8.47a45.76 45.76 0 0 1 0-64.71l8.47-8.47 8.47 8.47a45.66 45.66 0 0 1 13.11 37.51z"/><path class="cls-6" d="M277.58 292.54a45.58 45.58 0 0 1-13.11 27.2l-8.47 8.47-8.47-8.47a45.58 45.58 0 0 1-13.11-27.2 45.58 45.58 0 0 1 13.11-27.2l8.47-8.46 4.54 4.53 3.93 3.93a45.58 45.58 0 0 1 13.11 27.2z"/><path class="cls-9" d="M313.73 282.46v12A45.75 45.75 0 0 1 268 340.19h-24a45.75 45.75 0 0 1-45.75-45.75v-12h12A45.75 45.75 0 0 1 256 328.21a45.75 45.75 0 0 1 45.75-45.75z"/><path class="cls-6" d="M313.73 292.77v1.67A45.75 45.75 0 0 1 268 340.19h-24a45.75 45.75 0 0 1-45.75-45.75v-1.67h12A45.75 45.75 0 0 1 256 338.52a45.75 45.75 0 0 1 45.75-45.75z"/><ellipse class="cls-7" cx="301.77" cy="306.23" rx="10.81" ry="6" transform="rotate(-69.37 301.784 306.233)"/><ellipse class="cls-7" cx="289.63" cy="324.02" rx="7.79" ry="3.31" transform="rotate(-43.83 289.645 324.027)"/><ellipse class="cls-7" cx="214.65" cy="302.88" rx="6" ry="10.81" transform="rotate(-82.52 214.64 302.875)"/><ellipse class="cls-7" cx="234.73" cy="310.66" rx="3.31" ry="7.79" transform="rotate(-56.98 234.715 310.647)"/><ellipse class="cls-7" cx="259.04" cy="270.84" rx="4.79" ry="8.63" transform="rotate(-45.74 258.997 270.824)"/><ellipse class="cls-7" cx="268.15" cy="285.41" rx="2.65" ry="6.22" transform="rotate(-20.2 268.08 285.373)"/><ellipse class="cls-7" cx="294.1" cy="275.78" rx="2.25" ry="5.27" transform="rotate(-16.8 294.18 275.837)"/><ellipse class="cls-7" cx="217.9" cy="275.78" rx="5.27" ry="2.25" transform="rotate(-73.2 217.88 275.777)"/><ellipse class="cls-7" cx="261.58" cy="240" rx="4.79" ry="8.63" transform="rotate(-49.62 261.582 240.002)"/><ellipse class="cls-7" cx="271.67" cy="253.93" rx="2.65" ry="6.22" transform="rotate(-24.08 271.685 253.946)"/><path class="cls-9" d="m278 185.13-4.53 3.29-5.21 3.79a4.17 4.17 0 0 0-1.52 4.65l.68 2.09 3 9.36a1.44 1.44 0 0 1-1.3 1.89 1.31 1.31 0 0 1-.92-.27l-9.74-7.08a4.19 4.19 0 0 0-4.9 0l-9.74 7.08a1.31 1.31 0 0 1-.92.27 1.44 1.44 0 0 1-1.3-1.89l3-9.36.68-2.09a4.17 4.17 0 0 0-1.52-4.65l-5.21-3.79-4.53-3.29a1.45 1.45 0 0 1 .85-2.62h12a4.15 4.15 0 0 0 4-2.87l3.72-11.46a1.45 1.45 0 0 1 2.76 0l3.72 11.46a4.15 4.15 0 0 0 3.95 2.87h12.08a1.45 1.45 0 0 1 .9 2.62zM328.07 199.44l-4.53 3.29-5.22 3.79a4.15 4.15 0 0 0-1.51 4.65l.67 2.08 3 9.38a1.44 1.44 0 0 1-1.3 1.89 1.36 1.36 0 0 1-.92-.27l-9.75-7.08a4.14 4.14 0 0 0-4.89 0l-9.74 7.08a1.34 1.34 0 0 1-.93.27 1.44 1.44 0 0 1-1.3-1.89l3.05-9.38.67-2.08a4.15 4.15 0 0 0-1.51-4.65l-5.21-3.79-4.53-3.29a1.45 1.45 0 0 1 .85-2.62h12a4.16 4.16 0 0 0 4-2.87l3.72-11.46a1.45 1.45 0 0 1 2.75 0l3.77 11.51a4.16 4.16 0 0 0 4 2.87h12a1.45 1.45 0 0 1 .86 2.57zM227.83 199.44l-4.53 3.29-5.21 3.79a4.15 4.15 0 0 0-1.51 4.65l.67 2.08 3.05 9.38a1.44 1.44 0 0 1-1.3 1.89 1.34 1.34 0 0 1-.93-.27l-9.74-7.08a4.14 4.14 0 0 0-4.89 0l-9.75 7.08a1.36 1.36 0 0 1-.92.27 1.44 1.44 0 0 1-1.3-1.89l3.05-9.38.67-2.08a4.15 4.15 0 0 0-1.51-4.65l-5.22-3.79-4.53-3.29a1.45 1.45 0 0 1 .86-2.62h12a4.16 4.16 0 0 0 4-2.87l3.72-11.46a1.45 1.45 0 0 1 2.75 0L211 194a4.16 4.16 0 0 0 4 2.87h12a1.45 1.45 0 0 1 .83 2.57z"/><path class="cls-6" d="m266.69 202.76 2.42 7.44a1.31 1.31 0 0 1-.92-.27l-9.74-7.08a4.19 4.19 0 0 0-4.9 0l-9.74 7.08a1.31 1.31 0 0 1-.92.27l2.42-7.44a4.1 4.1 0 0 0-.68-3.81l.68-2.09a4.17 4.17 0 0 0-1.52-4.65l-5.21-3.79H247a4.15 4.15 0 0 0 4-2.88l3.72-11.45a1.45 1.45 0 0 1 2.76 0l3.72 11.45a4.15 4.15 0 0 0 3.95 2.88h8.37l-5.21 3.79a4.17 4.17 0 0 0-1.52 4.65l.68 2.09a4.1 4.1 0 0 0-.78 3.81zM316.81 217.08l2.42 7.44a1.36 1.36 0 0 1-.92-.27l-9.75-7.08a4.14 4.14 0 0 0-4.89 0l-9.74 7.08a1.34 1.34 0 0 1-.93.27l2.42-7.44a4.12 4.12 0 0 0-.67-3.83l.67-2.08a4.15 4.15 0 0 0-1.51-4.65l-5.21-3.79h8.36a4.17 4.17 0 0 0 4-2.87l3.72-11.46a1.45 1.45 0 0 1 2.75 0l3.72 11.46a4.17 4.17 0 0 0 4 2.87h8.37l-5.22 3.79a4.15 4.15 0 0 0-1.51 4.65l.67 2.08a4.12 4.12 0 0 0-.75 3.83zM216.58 217.08l2.42 7.44a1.34 1.34 0 0 1-.93-.27l-9.74-7.08a4.14 4.14 0 0 0-4.89 0l-9.75 7.08a1.36 1.36 0 0 1-.92.27l2.42-7.44a4.12 4.12 0 0 0-.67-3.83l.67-2.08a4.15 4.15 0 0 0-1.51-4.65l-5.22-3.79h8.37a4.17 4.17 0 0 0 4-2.87l3.72-11.46a1.45 1.45 0 0 1 2.75 0l3.7 11.46a4.17 4.17 0 0 0 4 2.87h8.36l-5.21 3.79a4.15 4.15 0 0 0-1.51 4.65l.67 2.08a4.12 4.12 0 0 0-.73 3.83z"/><path class="cls-3" d="M68.68 215.27a225.4 225.4 0 0 0 27 157.33 4.75 4.75 0 0 1 .66 2.95 3.41 3.41 0 0 1-.26 1 2.6 2.6 0 0 1-1 1.24c-1.51.94-3.71.09-4.88-1.89a231.88 231.88 0 0 1-27.82-161.85c.43-2.19 2.21-3.66 3.94-3.29a2.71 2.71 0 0 1 1.42.81 4.19 4.19 0 0 1 .94 3.7z"/><path class="cls-4" d="M68.68 215.27a225.4 225.4 0 0 0 27 157.33 4.75 4.75 0 0 1 .66 2.95 3.41 3.41 0 0 1-.26 1 4.29 4.29 0 0 1-3.26-2.23 228.69 228.69 0 0 1-27.4-159.64 4.1 4.1 0 0 1 2.31-3.07 4.19 4.19 0 0 1 .95 3.66z"/><path class="cls-3" d="M61.05 315.7c1 4 2.12 8 3.34 12 .28.92-.34 1.73-1.1 1.38-10.08-5.48-27.46 8.9-36.1-36.75-.18-1.19.76-1.94 1.45-1.16l1 1.05q3.75 4.1 7.62 7.95c2.84 2.82 6.28 4 9.52 3.38a10.46 10.46 0 0 1 8.74 2.78 18.27 18.27 0 0 1 5.53 9.37z"/><path class="cls-4" d="M61.05 315.7c.52 2.08 1.07 4.17 1.65 6.24-9.54-4.45-24.78 6.05-33.09-29.75q3.75 4.1 7.62 7.95c2.84 2.82 6.28 4 9.52 3.38a10.46 10.46 0 0 1 8.74 2.78 18.27 18.27 0 0 1 5.56 9.4z"/><path class="cls-5" d="M44.47 305c2.68.51 4.81 2.61 4.81 4.74s-2.16 3.55-4.85 3.13-4.9-2.61-4.87-4.82 2.24-3.56 4.91-3.05zM54.94 310.17c1.74 1.13 2.82 3.05 2.42 4.34s-2.14 1.49-3.9.39-2.86-3.11-2.43-4.42 2.18-1.43 3.91-.31z"/><path class="cls-3" d="M55.43 284.58q.69 6.14 1.7 12.24c.15.94-.57 1.66-1.28 1.21-9.26-6.75-28.37 5.2-30.85-41 0-1.2 1-1.81 1.6-1l.81 1.18q3.18 4.55 6.5 8.87c2.43 3.16 5.7 4.77 9 4.6a10.46 10.46 0 0 1 8.29 3.9 18.19 18.19 0 0 1 4.23 10z"/><path class="cls-4" d="M55.43 284.58c.24 2.13.51 4.25.8 6.38-8.86-5.67-25.35 2.72-28.82-33.76q3.18 4.55 6.5 8.87c2.43 3.16 5.7 4.77 9 4.6a10.46 10.46 0 0 1 8.29 3.9 18.19 18.19 0 0 1 4.23 10.01z"/><path class="cls-5" d="M40.44 271.84c2.58.86 4.42 3.21 4.13 5.32s-2.62 3.22-5.23 2.44-4.5-3.21-4.18-5.4 2.7-3.2 5.28-2.36zM50.12 278.32c1.57 1.34 2.39 3.38 1.82 4.61s-2.33 1.18-3.92-.14-2.41-3.45-1.82-4.68 2.35-1.11 3.92.21z"/><path class="cls-3" d="M54 253.1q-.14 6.16 0 12.33c0 .95-.79 1.56-1.42 1-8.28-7.93-28.82 1.43-25.12-44.78.15-1.19 1.25-1.66 1.71-.74l.65 1.28q2.53 4.93 5.26 9.67c2 3.46 5 5.49 8.29 5.76a10.52 10.52 0 0 1 7.7 5A18.21 18.21 0 0 1 54 253.1z"/><path class="cls-4" d="M54 253.1q-.08 3.21-.06 6.41c-8-6.79-25.49-.63-24.07-37.29q2.53 4.93 5.26 9.67c2 3.46 5 5.49 8.29 5.76a10.52 10.52 0 0 1 7.7 5A18.21 18.21 0 0 1 54 253.1z"/><path class="cls-5" d="M40.86 238.48c2.44 1.2 3.94 3.78 3.38 5.82s-3 2.85-5.51 1.73-4-3.79-3.42-5.91 3.1-2.83 5.55-1.64zM49.59 246.2c1.38 1.54 1.91 3.66 1.19 4.8s-2.46.86-3.87-.66-1.93-3.73-1.18-4.88 2.48-.8 3.86.74z"/><path class="cls-3" d="M56.81 221.69q-1 6.1-1.59 12.25c-.1.95-1 1.45-1.55.83-7.13-9-28.78-2.35-18.89-47.88.31-1.17 1.46-1.5 1.8-.51.15.45.31.91.47 1.36Q38.9 193 41 198.08c1.5 3.71 4.22 6.13 7.44 6.83a10.53 10.53 0 0 1 7 6 18.26 18.26 0 0 1 1.37 10.78z"/><path class="cls-4" d="M56.81 221.69c-.33 2.12-.64 4.24-.91 6.37-7-7.84-25.2-4-18.85-40.32Q38.9 193 41 198.08c1.5 3.71 4.22 6.13 7.44 6.83a10.53 10.53 0 0 1 7 6 18.26 18.26 0 0 1 1.37 10.78z"/><path class="cls-5" d="M45.72 205.4c2.27 1.52 3.41 4.28 2.57 6.24s-3.37 2.43-5.69 1-3.48-4.31-2.6-6.34 3.46-2.42 5.72-.9zM53.34 214.24c1.16 1.71 1.41 3.89.54 4.93s-2.56.53-3.75-1.17-1.41-4-.51-5 2.56-.47 3.72 1.24z"/><path class="cls-3" d="M66.12 195.74q-2 5.76-3.79 11.63c-.27.9-1.22 1.19-1.66.46-5.28-10.38-27.47-9.11-9.23-51.5.52-1.08 1.68-1.11 1.81-.05.07.48.13 1 .19 1.45q.77 5.64 1.77 11.14c.75 4 2.91 7 5.87 8.49a11.23 11.23 0 0 1 5.62 7.47 18.6 18.6 0 0 1-.58 10.91z"/><path class="cls-4" d="M66.12 195.74c-.71 2-1.39 4-2.05 6-5.4-9.22-23.68-9.8-10.63-44q.77 5.64 1.77 11.14c.75 4 2.91 7 5.87 8.49a11.23 11.23 0 0 1 5.62 7.47 18.6 18.6 0 0 1-.58 10.9z"/><path class="cls-5" d="M58.42 177.2c1.89 2 2.48 5 1.31 6.74s-3.71 1.59-5.67-.38-2.55-5.07-1.31-6.85 3.77-1.53 5.67.49zM64.13 187.66c.81 1.94.64 4.13-.39 5s-2.57-.07-3.41-2-.63-4.22.43-5 2.56.06 3.37 2z"/><path class="cls-3" d="M75.36 312.11q1.41 5.64 3.13 11.23c.27.86 1.23 1.13 1.67.45 7.09-9.63 23.91-7.91 19.11-40.82a.93.93 0 0 0-1.66-.51l-.71 1q-2.73 3.75-5.31 7.71a12.36 12.36 0 0 1-8 5.52 10.22 10.22 0 0 0-7.11 5.31 14.07 14.07 0 0 0-1.12 10.11z"/><path class="cls-4" d="M75.36 312.11c.49 1.95 1 3.91 1.55 5.85 7.12-8.18 21.91-7.55 20-34.53q-2.73 3.75-5.31 7.71a12.36 12.36 0 0 1-8 5.52 10.22 10.22 0 0 0-7.12 5.34 14.07 14.07 0 0 0-1.12 10.11z"/><path class="cls-5" d="M86.26 297.05c-2.34 1.28-3.58 3.72-2.76 5.38s3.35 1.86 5.65.51 3.51-3.7 2.74-5.28-3.29-1.89-5.63-.61zM78.48 305c-1.14 1.61-1.29 3.65-.37 4.53s2.56.23 3.67-1.38 1.29-3.58.4-4.45-2.56-.33-3.7 1.3z"/><path class="cls-3" d="M70.1 282.94q.65 5.74 1.59 11.47c.14.89 1.06 1.28 1.58.67 8.32-8.57 24.78-4.59 24.42-37.74a.93.93 0 0 0-1.59-.72l-.83.85q-3.19 3.36-6.29 6.92a12.33 12.33 0 0 1-8.62 4.4 10.23 10.23 0 0 0-7.8 4.32 13.93 13.93 0 0 0-2.46 9.83z"/><path class="cls-4" d="M70.1 282.94q.33 3 .75 6c8.14-7.13 22.73-4.52 24.42-31.44q-3.19 3.36-6.29 6.92a12.33 12.33 0 0 1-8.62 4.4 10.23 10.23 0 0 0-7.8 4.32 13.93 13.93 0 0 0-2.46 9.8z"/><path class="cls-5" d="M82.91 269.53c-2.49 1-4 3.19-3.45 4.94s3.07 2.28 5.53 1.25 4-3.18 3.42-4.85-3.01-2.29-5.5-1.34zM74.14 276.32c-1.34 1.43-1.77 3.43-1 4.41s2.51.56 3.82-.88 1.76-3.36 1-4.33-2.47-.64-3.82.8z"/><path class="cls-3" d="M68.77 253.42c-.08 3.86-.07 7.71 0 11.56 0 .9.89 1.41 1.48.87 9.39-7.37 25.17-1.19 29.22-34.13a.93.93 0 0 0-1.47-.93l-.94.74q-3.61 2.91-7.16 6a12.25 12.25 0 0 1-9.12 3.21 10.3 10.3 0 0 0-8.26 3.26 13.93 13.93 0 0 0-3.75 9.42z"/><path class="cls-4" d="M68.77 253.42c0 2-.06 4 0 6 9-6 23.13-1.42 28.39-27.91q-3.61 2.91-7.16 6a12.25 12.25 0 0 1-9.12 3.21 10.3 10.3 0 0 0-8.36 3.28 13.93 13.93 0 0 0-3.75 9.42z"/><path class="cls-5" d="M83.26 241.85c-2.59.61-4.44 2.62-4.08 4.44s2.74 2.67 5.31 2 4.36-2.62 4-4.35-2.64-2.71-5.23-2.09zM73.67 247.41c-1.53 1.24-2.22 3.16-1.56 4.24s2.41.89 3.9-.36 2.2-3.09 1.56-4.16-2.38-.96-3.9.28z"/><path class="cls-3" d="M71.39 224q-.9 5.73-1.49 11.48c-.1.9.69 1.51 1.35 1.06 10.3-6.08 25.08 2.22 33.53-30.05a.93.93 0 0 0-1.33-1.12l-1 .61q-4 2.41-7.91 5.06A12.26 12.26 0 0 1 85 213a10.25 10.25 0 0 0-8.67 2.13 14 14 0 0 0-4.94 8.87z"/><path class="cls-4" d="M71.39 224c-.31 2-.6 4-.85 6 9.74-4.75 23.09 1.71 31.88-24q-4 2.41-7.91 5.06A12.26 12.26 0 0 1 85 213a10.25 10.25 0 0 0-8.67 2.13 14 14 0 0 0-4.94 8.87z"/><path class="cls-5" d="M87.3 214.4c-2.66.26-4.75 2-4.64 3.87s2.36 3 5 2.67 4.67-2 4.58-3.79-2.24-3.02-4.94-2.75zM77 218.65c-1.67 1-2.61 2.85-2.1 4s2.26 1.21 3.91.16 2.59-2.78 2.1-3.93-2.19-1.26-3.91-.23z"/><path class="cls-3" d="M73.4 197.77c-.78 3.87-1.47 7.74-2 11.62-.14.9.62 1.52 1.31 1.08 10.7-6.15 25 2.93 35.34-30a.92.92 0 0 0-1.28-1.19c-.35.21-.71.41-1.07.61q-4.17 2.39-8.27 5a12.59 12.59 0 0 1-9.67 1.85 10.47 10.47 0 0 0-8.86 2.05 15 15 0 0 0-5.5 8.98z"/><path class="cls-4" d="M73.4 197.77c-.41 2-.79 4-1.14 6 10.08-4.8 23 2.24 33.4-23.89q-4.17 2.39-8.27 5a12.59 12.59 0 0 1-9.67 1.85 10.47 10.47 0 0 0-8.86 2.05 15 15 0 0 0-5.46 8.99z"/><path class="cls-5" d="M89.93 188.24c-2.69.22-4.89 2-4.88 3.87s2.22 3.11 4.89 2.81 4.81-2 4.82-3.77-2.14-3.15-4.83-2.91zM79.37 192.42c-1.74 1-2.78 2.87-2.32 4.05s2.22 1.25 3.93.21 2.75-2.79 2.32-4-2.19-1.29-3.93-.26z"/><path class="cls-3" d="M76.74 171q-3.4 5-6.55 10.21c-.49.8-1.46.77-1.67-.09-2.31-11.88-23-18.58 5.38-54 .77-.89 1.82-.5 1.64.59l-.24 1.51q-.89 5.88-1.47 11.66c-.42 4.24.73 8 3.07 10.41a13 13 0 0 1 3.21 9.23A19.38 19.38 0 0 1 76.74 171z"/><path class="cls-4" d="M76.74 171c-1.18 1.73-2.34 3.49-3.47 5.26-2.7-10.76-19.3-17.8 2-47.09q-.89 5.88-1.47 11.66c-.42 4.24.73 8 3.07 10.41a13 13 0 0 1 3.21 9.23A19.38 19.38 0 0 1 76.74 171z"/><path class="cls-5" d="M74.5 150.13c1.19 2.65 1 5.78-.58 7.09s-3.84.3-5.12-2.32-1-5.9.65-7.23 3.86-.19 5.05 2.46zM77 162.35c.24 2.17-.48 4.28-1.66 4.74s-2.34-.91-2.63-3.09.53-4.36 1.72-4.8 2.33.97 2.57 3.15z"/><path class="cls-3" d="M80 172.3q-1 5.87-1.74 11.7c-.11.9.68 1.46 1.37.95 10.84-7.23 25.17 1.37 35.6-32.82a.9.9 0 0 0-1.32-1.13l-1.1.69q-4.28 2.73-8.46 5.69a13.73 13.73 0 0 1-9.89 2.62 11.45 11.45 0 0 0-9.07 2.87A16.13 16.13 0 0 0 80 172.3z"/><path class="cls-4" d="M80 172.3q-.56 3-1 6.09c10.24-5.84 23.36.57 33.78-26.71q-4.28 2.73-8.46 5.69a13.73 13.73 0 0 1-9.86 2.63 11.45 11.45 0 0 0-9.07 2.87A16.13 16.13 0 0 0 80 172.3z"/><path class="cls-5" d="M96.75 161.29c-2.75.45-5 2.41-4.93 4.3s2.33 2.93 5.06 2.43 4.88-2.33 4.86-4.16-2.23-3.01-4.99-2.57zM86 166.4c-1.76 1.19-2.78 3.12-2.28 4.25s2.31 1 4-.14 2.74-3 2.28-4.16-2.24-1.14-4 .05z"/></svg>