<svg version="1.1" id="Layer_1" xmlns="http://www.w3.org/2000/svg" x="0" y="0" viewBox="0 0 500 500" style="enable-background:new 0 0 500 500" xml:space="preserve"><style>.st1{fill:#ecf4f7}</style><circle cx="250" cy="250" r="202.523" style="fill:#83e1e5"/><path d="m414.53 221.751-64.067-22.479 10.315-68.624c.408-2.716-2.221-4.89-4.812-3.979l-69.562 24.451-32.483-61.597c-1.364-2.586-5.065-2.594-6.439-.013l-33.045 62.037-70.549-24.753c-2.591-.909-5.219 1.266-4.81 3.982l10.331 68.498-63.942 22.475a3.644 3.644 0 0 0-2.015 5.137l45.189 85.731-18.033 33.854c-1.293 2.427.466 5.357 3.216 5.357h35.485l22.331 42.365c1.914 3.632 7.439 1.817 6.827-2.243l-6.051-40.123h155.116l-6.015 40.015c-.61 4.058 4.912 5.871 6.826 2.242l22.292-42.256h35.571c2.743 0 4.503-2.917 3.223-5.344l-17.984-34.103 45.1-85.49a3.643 3.643 0 0 0-2.015-5.14z" style="fill:#fddf7f"/><path class="st1" d="m371.446 312.38-20.81 39.446h-23.104l14.352-95.474zM158.145 257.196l-29.503 55.419 20.668 39.211h23.107zM214.438 151.546l-16.319 30.605 51.727-18.182z"/><path class="st1" d="m286.405 151.119-36.559 12.85L303 182.619zM303 182.619l38.884 73.733 8.579-57.08zM198.119 182.151l-39.974 75.045-8.735-57.924z"/><path d="M262.124 15.833a5 5 0 0 1 5-5h5.833V5a5 5 0 0 1 10 0v5.833h5.833a5 5 0 0 1 0 10h-5.833v5.833a5 5 0 0 1-10 0v-5.833h-5.833a5 5 0 0 1-5-5zm-30.309 463.334h-5.833v-5.833a5 5 0 0 0-10 0v5.833h-5.833a5 5 0 0 0 0 10h5.833V495a5 5 0 0 0 10 0v-5.833h5.833a5 5 0 0 0 0-10zM250 457.523c-114.429 0-207.523-93.094-207.523-207.523S135.571 42.477 250 42.477 457.523 135.571 457.523 250 364.429 457.523 250 457.523zm0-10c108.915 0 197.523-88.608 197.523-197.523S358.915 52.477 250 52.477 52.477 141.085 52.477 250 141.085 447.523 250 447.523zM245.22 20.88l.102-.001c1.556-.031 3.115-.046 4.678-.046a5 5 0 0 0 0-10c-1.63 0-3.256.016-4.877.048a5 5 0 0 0-4.899 5.099 4.999 4.999 0 0 0 4.996 4.9zm-18.649 1.136a5 5 0 1 0-1.009-9.949c-58.608 5.95-112.8 33.338-152.594 77.119C32.9 133.269 10.833 190.38 10.833 250a5 5 0 0 0 10 0c0-118.065 88.448-216.078 205.738-227.984zM255.614 479.1c-1.864.044-3.752.067-5.614.067a5 5 0 0 0 0 10c1.94 0 3.909-.023 5.852-.07a5 5 0 0 0 4.879-5.118c-.065-2.761-2.358-4.963-5.117-4.879zM484.167 245a5 5 0 0 0-5 5c0 116.187-86.88 214.027-202.09 227.585a5 5 0 0 0 1.169 9.931C398.491 473.366 489.167 371.256 489.167 250a5 5 0 0 0-5-5zM183.412 391.203c.642 4.252-1.764 8.159-5.849 9.501a8.926 8.926 0 0 1-2.786.452c-3.119 0-6.01-1.694-7.559-4.633l-20.925-39.697h-32.484a8.574 8.574 0 0 1-7.411-4.195 8.575 8.575 0 0 1-.218-8.513l16.795-31.531-43.946-83.372a8.636 8.636 0 0 1-.4-7.187 8.64 8.64 0 0 1 5.18-4.999l60.039-21.103-9.714-64.407a8.576 8.576 0 0 1 3.035-7.947 8.58 8.58 0 0 1 8.374-1.499l66.485 23.327 31.024-58.243a8.624 8.624 0 0 1 7.629-4.58h.018a8.624 8.624 0 0 1 7.628 4.611l30.474 57.787 65.506-23.025a8.575 8.575 0 0 1 8.375 1.494 8.575 8.575 0 0 1 3.039 7.946l-9.7 64.533 60.163 21.109a8.638 8.638 0 0 1 5.185 4.998 8.637 8.637 0 0 1-.401 7.191l-43.878 83.173 16.746 31.755c1.425 2.703 1.334 5.879-.245 8.496s-4.345 4.179-7.401 4.179h-32.54l-20.886 39.59c-2.006 3.802-6.257 5.519-10.342 4.179-4.083-1.341-6.49-5.246-5.851-9.497l5.152-34.271H178.227l5.185 34.378zm139.816-44.377 13.467-89.594-37.202-70.545-49.646-17.419-48.232 16.953-38.28 71.865 13.383 88.74h146.51zm-167.773-73.943-21.162 39.729 18.034 34.214h14.279l-11.151-73.943zm5.381-31.374 26.839-50.387-32.704 11.496 5.865 38.891zm73.92-77.535-17.937-6.294-8.257 15.501 26.194-9.207zm57.879 9.709-8.655-16.412-19.044 6.694 27.699 9.718zm52.269 28.938-31.539-11.066 25.838 48.995 5.701-37.929zM333.34 346.826h14.281l18.164-34.431-21.221-40.241-11.224 74.672zm9.006 10h-10.509l-4.187 27.856 14.696-27.856zm29.091-33.714-12.51 23.714h25.016l-12.506-23.714zM354.51 205.991l-7.438 49.481 24.367 46.207 39.951-75.73-56.88-19.958zm-60.992-52.072 12.99 24.632 39.91 14.003 9.082-60.421-61.982 21.786zm-71.943-5.168 28.27 9.919 29.42-10.341-28.588-54.211-29.102 54.633zm-77.216-16.495 9.093 60.295 41.169-14.471 12.651-23.75-62.913-22.074zm-15.702 169.665 24.297-45.615-7.588-50.312-56.758 19.95 40.049 75.977zm12.365 44.905-12.412-23.547-12.543 23.547h24.955zm31.307 37.948-4.215-27.948h-10.517l14.732 27.948z" style="fill:#1c1d21"/></svg>