<svg id="Icons" xmlns="http://www.w3.org/2000/svg" viewBox="0 0 512 512"><defs><style>.cls-3{fill:#098955}.cls-4{fill:#14a36d}.cls-5{fill:#51c441}.cls-6{fill:#65e856}.cls-7{fill:#92f784}.cls-8{fill:#cfffc7}.cls-9{fill:#15be79}.cls-10{fill:#27e090}</style></defs><circle cx="256" cy="256" r="255.98" style="fill:#b82065"/><path d="M512 255.76A255.63 255.63 0 0 0 408.56 50.44C295-33.81 134.69-10.08 50.44 103.44a254.76 254.76 0 0 0-49.93 136 76.89 76.89 0 0 1 14.24 6.88c23.84 14.74 42 41.9 69.91 44.44 19.15 1.75 37.29-9.24 51.1-22.62s24.87-29.51 39.4-42.12a112.53 112.53 0 0 1 157.7 10c14.17 15.89 26.53 37.44 47.68 40 28.75 3.44 51.22-31.63 80-28.95 9.3.87 17.72 5.66 26.73 8a54.5 54.5 0 0 0 24.73.69z" style="fill:#d7156f"/><path class="cls-3" d="M273.09 435.62h-33.74a9.9 9.9 0 0 1-1.45-.1 9.59 9.59 0 0 1-7.75-12.18l13.46-46.1h25.22l3.57 12.24 9.9 33.86a9.6 9.6 0 0 1-9.21 12.28z"/><path class="cls-4" d="M273.09 435.62h-33.74a9.9 9.9 0 0 1-1.45-.1l11-37.78a11.47 11.47 0 0 1 11-8.26h12.5l9.9 33.86a9.6 9.6 0 0 1-9.21 12.28z"/><path class="cls-5" d="M282.74 278 256 304.7 229.26 278a144.42 144.42 0 0 1 0-204.23L256 47l14.32 14.31 12.42 12.41a144.42 144.42 0 0 1 0 204.28z"/><path class="cls-6" d="m282.74 278-1.74 1.68-2-1.31a144.41 144.41 0 0 1-43.45-199.55L256 47l14.32 14.31 12.42 12.41a144.42 144.42 0 0 1 0 204.28z"/><ellipse class="cls-7" cx="276.59" cy="106.77" rx="15.18" ry="25.92" transform="rotate(-14.53 276.56 106.763)"/><path class="cls-6" d="m264.11 315.63-6.61 24.66-1.5 5.61-30.27-8.11A119.69 119.69 0 0 1 141.1 191.2l8.11-30.28 20.95 5.62 9.32 2.5a119.69 119.69 0 0 1 84.63 146.59z"/><path class="cls-7" d="m264.11 315.63-6.61 24.66-9.31-2.5a119.67 119.67 0 0 1-84.63-146.59l6.6-24.66 9.32 2.5a119.69 119.69 0 0 1 84.63 146.59z"/><ellipse class="cls-8" cx="207.55" cy="209.81" rx="14.64" ry="27.25" transform="rotate(-51 208.315 209.728)"/><path class="cls-5" d="m247.89 315.63 6.61 24.66 1.5 5.61 30.27-8.11A119.69 119.69 0 0 0 370.9 191.2l-8.11-30.27-21 5.61-9.32 2.5a119.69 119.69 0 0 0-84.58 146.59z"/><path class="cls-6" d="m247.89 315.63 6.61 24.66 9.31-2.5a119.67 119.67 0 0 0 84.63-146.59l-6.6-24.66-9.32 2.5a119.69 119.69 0 0 0-84.63 146.59z"/><ellipse class="cls-7" cx="304.45" cy="209.82" rx="27.25" ry="14.64" transform="rotate(-38.69 304.494 209.827)"/><path class="cls-6" d="M278.16 323.74 256 345.9l-22.16-22.16a119.7 119.7 0 0 1 0-169.27L256 132.31l11.87 11.87 10.29 10.29a119.7 119.7 0 0 1 0 169.27z"/><path class="cls-7" d="m278.16 323.74-1.42 1.42-1.7-1.09a119.7 119.7 0 0 1-36-165.4L256 132.31l11.87 11.87 10.29 10.29a119.7 119.7 0 0 1 0 169.27z"/><ellipse class="cls-8" cx="273.06" cy="181.84" rx="12.58" ry="21.48" transform="rotate(-14.53 273.047 181.847)"/><path class="cls-3" d="M256 345.9v31.34h-31.34A119.7 119.7 0 0 1 105 257.55v-31.34h31.34A119.68 119.68 0 0 1 256 345.9z"/><path class="cls-4" d="M256 345.9v31.34h-9.22a119.69 119.69 0 0 1-119.69-119.69v-31.34h9.22A119.68 119.68 0 0 1 256 345.9z"/><ellipse class="cls-9" cx="176.32" cy="263.36" rx="16.97" ry="30.61" transform="rotate(-55.54 176.314 263.365)"/><ellipse class="cls-9" cx="216.99" cy="308.79" rx="9.38" ry="22.04" transform="rotate(-30 216.983 308.78)"/><path class="cls-4" d="M256 345.9v31.34h31.34A119.7 119.7 0 0 0 407 257.55v-31.34h-31.31A119.68 119.68 0 0 0 256 345.9z"/><path class="cls-9" d="M256 345.9v31.34h9.22a119.69 119.69 0 0 0 119.69-119.69v-31.34h-9.22A119.68 119.68 0 0 0 256 345.9z"/><ellipse class="cls-10" cx="335.68" cy="263.36" rx="30.61" ry="16.97" transform="rotate(-35 331.345 262.74)"/><ellipse class="cls-10" cx="295.01" cy="308.79" rx="22.04" ry="9.38" transform="rotate(-60 295.011 308.785)"/></svg>