<svg id="Icons" xmlns="http://www.w3.org/2000/svg" viewBox="0 0 512 512"><defs><style>.cls-3{fill:#c44a1a}.cls-5{fill:#ea792e}.cls-6{fill:#f9c744}.cls-7{fill:#fbd9a3}</style></defs><circle cx="256" cy="256" r="255.98" style="fill:#0989d8"/><path d="M0 255.76A255.63 255.63 0 0 1 103.44 50.44c113.54-84.25 273.87-60.52 358.12 53a254.76 254.76 0 0 1 49.93 136 76.89 76.89 0 0 0-14.24 6.88c-23.84 14.74-42 41.9-69.91 44.44-19.15 1.75-37.29-9.24-51.1-22.62s-24.87-29.51-39.4-42.12a112.53 112.53 0 0 0-157.7 10c-14.17 15.89-26.53 37.44-47.68 40-28.75 3.44-51.22-31.63-80-28.95-9.3.87-17.72 5.66-26.73 8a54.5 54.5 0 0 1-24.73.69z" style="fill:#29a3fb"/><path class="cls-3" d="M388.39 115.34h-90.25a32.42 32.42 0 0 0-28.08 16.22L256 155.91l-14.06-24.35a32.42 32.42 0 0 0-28.08-16.22h-90.25a50.33 50.33 0 0 0-50.32 50.33V332.81a50.31 50.31 0 0 0 50.31 49.65h264.79a50.31 50.31 0 0 0 50.31-49.65V165.67a50.33 50.33 0 0 0-50.31-50.33zm-82.15 69.31a32.41 32.41 0 0 1 28-16.15h20.47a15.87 15.87 0 0 1 15.88 15.87v105.89a15.88 15.88 0 0 1-15.88 15.87h-15.88v-.8c0-.31 0-.61-.07-.92s-.06-.56-.1-.85a14.3 14.3 0 0 0-.27-1.72c0-.29-.1-.58-.16-.86l-.21-.86a23.54 23.54 0 0 0-.81-2.68c-.08-.23-.17-.45-.25-.68s-.22-.56-.34-.83q-.31-.76-.69-1.53c-.28-.58-.59-1.16-.92-1.73l-45.55-78.88zm-50.24 87 19.9 34.46h-39.8zm-33.42-57.88L177 292.67c-.33.57-.64 1.15-.92 1.73s-.48 1-.69 1.53c-.12.27-.23.55-.34.83s-.17.45-.25.68a23.54 23.54 0 0 0-.81 2.68l-.21.86c-.06.28-.12.57-.16.86a14.3 14.3 0 0 0-.27 1.72c0 .29-.07.56-.1.85s-.06.61-.07.92v.8h-15.93a15.88 15.88 0 0 1-15.88-15.87V184.37a15.87 15.87 0 0 1 15.88-15.87h20.47a32.41 32.41 0 0 1 28 16.15z"/><path d="M388.39 115.34h-90.25a32.42 32.42 0 0 0-28.08 16.22L256 155.91l-14.06-24.35a32.42 32.42 0 0 0-28.08-16.22h-90.25a50.33 50.33 0 0 0-50.32 50.33V332.81a50.33 50.33 0 0 0 50.31 49h264.79a50.33 50.33 0 0 0 50.31-49V165.67a50.33 50.33 0 0 0-50.31-50.33zm12.43 213.09A15.86 15.86 0 0 1 385 344.29H127.05a15.86 15.86 0 0 1-15.87-15.86V165.68a15.87 15.87 0 0 1 15.87-15.88h39.87A32.43 32.43 0 0 1 195 166l10.76 18.65 16.82 29.14L177 292.67c-.33.57-.64 1.15-.92 1.73s-.48 1-.69 1.53c-.12.27-.23.55-.34.83s-.17.45-.25.68a23.54 23.54 0 0 0-.81 2.68l-.21.86c-.06.28-.12.57-.16.86a14.3 14.3 0 0 0-.27 1.72c0 .29-.07.56-.1.85s-.06.61-.07.92 0 .54-.05.8a28.95 28.95 0 0 0 54 15.49l8.94-15.49L256 271.67l19.89 34.46 8.94 15.49a28.94 28.94 0 0 0 54-14.5v-1.8c0-.27 0-.61-.07-.92s-.05-.56-.1-.85a14.3 14.3 0 0 0-.27-1.72c0-.29-.1-.58-.16-.86l-.21-.86a23.54 23.54 0 0 0-.81-2.68c-.08-.23-.17-.45-.25-.68s-.22-.56-.34-.83q-.31-.76-.69-1.53c-.28-.58-.59-1.16-.92-1.73l-45.55-78.88 16.82-29.14L317 166a32.43 32.43 0 0 1 28.08-16.2H385a15.87 15.87 0 0 1 15.87 15.88z" style="fill:#dd5e26"/><path class="cls-3" d="m299.37 231.02-33.42 57.88-9.95-17.23 33.42-57.88 9.95 17.23zM256 155.91l-33.42 57.88-9.95-17.23 33.42-57.88 9.95 17.23z"/><ellipse class="cls-5" cx="282.26" cy="160.97" rx="30.3" ry="16.15" transform="rotate(-60 282.258 160.975)"/><ellipse class="cls-5" cx="250.29" cy="216.35" rx="21.95" ry="10.38" transform="rotate(-60 250.288 216.35)"/><ellipse class="cls-5" cx="90.95" cy="185.48" rx="12.82" ry="24.06"/><ellipse class="cls-5" cx="90.95" cy="236.25" rx="8.24" ry="17.43"/><ellipse class="cls-5" cx="421.05" cy="185.48" rx="12.82" ry="24.06"/><ellipse class="cls-5" cx="421.05" cy="236.25" rx="8.24" ry="17.43"/><path class="cls-6" d="M360.11 136.41a21.2 21.2 0 0 1 5.46 8.73c.94 3.11.63 5.93-1.1 7.66-3.33 3.33-10.66 1.37-16.39-4.36-3.85-3.85-6.63-12.06-8-17a2.45 2.45 0 0 1 1-2.71 2.42 2.42 0 0 1 2-.31c4.92 1.37 13.18 4.14 17.03 7.99z"/><path class="cls-7" d="M360.11 136.41a21.2 21.2 0 0 1 5.46 8.73 5.23 5.23 0 0 1-1.11 1.68c-3.32 3.32-10.65 1.37-16.38-4.36-3.09-3.09-5.48-9-7-13.76a2.42 2.42 0 0 1 2-.31c4.92 1.4 13.18 4.17 17.03 8.02z"/><path class="cls-6" d="M110.86 161.92a21.2 21.2 0 0 1 5.46 8.73c.94 3.11.63 5.93-1.1 7.66-3.33 3.33-10.66 1.37-16.39-4.36-3.85-3.85-6.63-12.06-8-17a2.44 2.44 0 0 1 3-3c4.96 1.35 13.17 4.12 17.03 7.97z"/><path class="cls-7" d="M110.86 161.92a21.2 21.2 0 0 1 5.46 8.73 5.23 5.23 0 0 1-1.11 1.68c-3.32 3.32-10.65 1.37-16.38-4.36-3.09-3.09-5.48-9-7-13.76a2.42 2.42 0 0 1 2-.31c4.96 1.4 13.17 4.17 17.03 8.02z"/><path class="cls-6" d="M377.71 332.72a21.27 21.27 0 0 1 5.47 8.72c.93 3.12.63 5.94-1.1 7.67-3.33 3.33-10.67 1.37-16.4-4.36-3.84-3.85-6.63-12.06-8-17a2.45 2.45 0 0 1 1-2.71 2.42 2.42 0 0 1 2-.32c4.97 1.38 13.19 4.15 17.03 8z"/><path class="cls-7" d="M377.71 332.72a21.27 21.27 0 0 1 5.47 8.72 5 5 0 0 1-1.11 1.68c-3.32 3.32-10.66 1.38-16.39-4.35-3.08-3.09-5.48-9-7-13.76a2.42 2.42 0 0 1 2-.32c4.97 1.41 13.19 4.18 17.03 8.03z"/><path class="cls-6" d="M264.18 344.07a21.13 21.13 0 0 1 5.46 8.72c.94 3.12.64 5.94-1.09 7.67-3.33 3.33-10.67 1.37-16.4-4.36-3.84-3.85-6.63-12.06-8-17a2.45 2.45 0 0 1 3-3c4.97 1.34 13.19 4.12 17.03 7.97z"/><path class="cls-7" d="M264.18 344.07a21.13 21.13 0 0 1 5.46 8.72 4.85 4.85 0 0 1-1.1 1.68c-3.32 3.32-10.66 1.38-16.39-4.35-3.09-3.09-5.48-9-7-13.77a2.45 2.45 0 0 1 2-.31c4.97 1.4 13.19 4.18 17.03 8.03z"/><path class="cls-6" d="M102.86 275.34a21.27 21.27 0 0 1 5.46 8.73c.94 3.12.64 5.94-1.1 7.67-3.32 3.33-10.66 1.36-16.39-4.37-3.85-3.84-6.63-12.05-8-17a2.46 2.46 0 0 1 1-2.72 2.39 2.39 0 0 1 2-.31c4.97 1.38 13.17 4.16 17.03 8z"/><path class="cls-7" d="M102.86 275.34a21.27 21.27 0 0 1 5.46 8.73 5.1 5.1 0 0 1-1.1 1.68c-3.32 3.32-10.66 1.37-16.39-4.36-3.09-3.08-5.48-9-7-13.76a2.39 2.39 0 0 1 2-.31c4.97 1.4 13.17 4.18 17.03 8.02z"/><path class="cls-6" d="M409.49 166.44a21.24 21.24 0 0 1-8.72 5.46c-3.12.94-5.94.64-7.67-1.09-3.33-3.33-1.37-10.67 4.36-16.4 3.85-3.84 12.06-6.63 17-8a2.45 2.45 0 0 1 2.71 1 2.41 2.41 0 0 1 .32 2c-1.37 4.97-4.15 13.19-8 17.03z"/><path class="cls-7" d="M409.49 166.44a21.24 21.24 0 0 1-8.72 5.46 5 5 0 0 1-1.68-1.1c-3.32-3.32-1.38-10.66 4.35-16.39 3.09-3.09 9-5.48 13.76-7a2.41 2.41 0 0 1 .32 2c-1.4 4.97-4.18 13.19-8.03 17.03z"/><path class="cls-6" d="M239.26 238.49a21.23 21.23 0 0 1-8.73 5.47c-3.11.93-5.93.63-7.66-1.1-3.33-3.33-1.37-10.67 4.36-16.4 3.85-3.84 12.06-6.63 17-8a2.45 2.45 0 0 1 2.71 1 2.42 2.42 0 0 1 .32 2c-1.38 4.97-4.15 13.19-8 17.03z"/><path class="cls-7" d="M239.26 238.49a21.23 21.23 0 0 1-8.73 5.47 5.08 5.08 0 0 1-1.67-1.11c-3.32-3.32-1.38-10.66 4.35-16.39 3.09-3.08 9-5.48 13.76-7a2.42 2.42 0 0 1 .32 2c-1.41 4.97-4.18 13.19-8.03 17.03z"/><path class="cls-6" d="M422.56 285a21.2 21.2 0 0 1-8.73 5.46c-3.11.94-5.93.63-7.66-1.1-3.33-3.33-1.37-10.66 4.36-16.39 3.85-3.85 12.06-6.63 17-8a2.43 2.43 0 0 1 2.71 1 2.39 2.39 0 0 1 .31 2c-1.37 4.96-4.14 13.18-7.99 17.03z"/><path class="cls-7" d="M422.56 285a21.2 21.2 0 0 1-8.73 5.46 5.07 5.07 0 0 1-1.68-1.11c-3.32-3.32-1.37-10.65 4.36-16.38 3.09-3.09 9-5.48 13.76-7a2.39 2.39 0 0 1 .31 2c-1.4 4.96-4.17 13.18-8.02 17.03z"/><path class="cls-6" d="M171.09 369.17a21.24 21.24 0 0 1-8.72 5.46c-3.12.94-5.94.64-7.67-1.09-3.33-3.33-1.37-10.67 4.36-16.4 3.85-3.84 12.06-6.63 17-8a2.45 2.45 0 0 1 2.71 1 2.41 2.41 0 0 1 .32 2c-1.37 4.97-4.15 13.19-8 17.03z"/><path class="cls-7" d="M171.09 369.17a21.24 21.24 0 0 1-8.72 5.46 5 5 0 0 1-1.68-1.1c-3.32-3.32-1.38-10.66 4.35-16.39 3.09-3.09 9-5.48 13.76-7a2.41 2.41 0 0 1 .32 2c-1.4 4.97-4.18 13.19-8.03 17.03z"/><path class="cls-6" d="M325.33 353.58a21.2 21.2 0 0 1 10 2.31c2.87 1.54 4.65 3.75 4.65 6.19 0 4.71-6.58 8.51-14.68 8.51-5.44 0-13.22-3.84-17.72-6.36a2.45 2.45 0 0 1-1.21-2.63 2.4 2.4 0 0 1 1.21-1.65c4.53-2.52 12.31-6.37 17.75-6.37z"/><path class="cls-7" d="M325.33 353.58a21.2 21.2 0 0 1 10 2.31 4.93 4.93 0 0 1 .41 2c0 4.69-6.57 8.5-14.67 8.5-4.37 0-10.22-2.47-14.7-4.76a2.4 2.4 0 0 1 1.21-1.65c4.53-2.55 12.31-6.4 17.75-6.4z"/><path class="cls-6" d="M224.73 274.14a21.2 21.2 0 0 1 10 2.31c2.87 1.54 4.65 3.75 4.65 6.2 0 4.7-6.58 8.5-14.68 8.5-5.44 0-13.22-3.83-17.72-6.36a2.44 2.44 0 0 1-1.21-2.62 2.4 2.4 0 0 1 1.21-1.66c4.53-2.51 12.31-6.37 17.75-6.37z"/><path class="cls-7" d="M224.73 274.14a21.2 21.2 0 0 1 10 2.31 5 5 0 0 1 .41 2c0 4.69-6.57 8.5-14.67 8.5-4.37 0-10.22-2.47-14.7-4.75a2.4 2.4 0 0 1 1.21-1.66c4.53-2.54 12.31-6.4 17.75-6.4z"/><path class="cls-6" d="M309.5 286.49a21.27 21.27 0 0 1 5.47 8.72c.93 3.12.63 5.94-1.1 7.67-3.33 3.33-10.67 1.37-16.4-4.36-3.84-3.85-6.63-12.06-8-17a2.45 2.45 0 0 1 1-2.71 2.42 2.42 0 0 1 2-.32c4.97 1.37 13.19 4.15 17.03 8z"/><path class="cls-7" d="M309.5 286.49a21.27 21.27 0 0 1 5.47 8.72 5 5 0 0 1-1.11 1.68c-3.32 3.32-10.66 1.38-16.39-4.35-3.08-3.09-5.48-9-7-13.76a2.42 2.42 0 0 1 2-.32c4.97 1.4 13.19 4.18 17.03 8.03z"/><path class="cls-6" d="M300.08 123.76a21.2 21.2 0 0 1 10 2.31c2.87 1.54 4.64 3.75 4.64 6.2 0 4.7-6.57 8.5-14.67 8.5-5.44 0-13.22-3.83-17.72-6.36a2.44 2.44 0 0 1-1.21-2.62 2.4 2.4 0 0 1 1.21-1.66c4.53-2.52 12.31-6.37 17.75-6.37z"/><path class="cls-7" d="M300.08 123.76a21.2 21.2 0 0 1 10 2.31 5 5 0 0 1 .4 2c0 4.69-6.56 8.5-14.66 8.5-4.37 0-10.22-2.47-14.7-4.75a2.4 2.4 0 0 1 1.21-1.66c4.53-2.55 12.31-6.4 17.75-6.4z"/><path class="cls-6" d="M142.85 123.76a21.17 21.17 0 0 1 10 2.31c2.87 1.54 4.65 3.75 4.65 6.2 0 4.7-6.58 8.5-14.68 8.5-5.44 0-13.21-3.83-17.72-6.36a2.45 2.45 0 0 1 0-4.28c4.54-2.52 12.31-6.37 17.75-6.37z"/><path class="cls-7" d="M142.85 123.76a21.17 21.17 0 0 1 10 2.31 5 5 0 0 1 .41 2c0 4.69-6.56 8.5-14.67 8.5-4.36 0-10.22-2.47-14.7-4.75a2.43 2.43 0 0 1 1.21-1.66c4.54-2.55 12.31-6.4 17.75-6.4z"/><path class="cls-6" d="M404.53 221a21.32 21.32 0 0 1-2.3 10c-1.54 2.87-3.75 4.65-6.2 4.65-4.71 0-8.51-6.58-8.51-14.68 0-5.44 3.84-13.22 6.36-17.72a2.45 2.45 0 0 1 2.63-1.21 2.38 2.38 0 0 1 1.65 1.21c2.53 4.5 6.37 12.28 6.37 17.75z"/><path class="cls-7" d="M404.53 221a21.32 21.32 0 0 1-2.3 10 5 5 0 0 1-2 .41c-4.7 0-8.51-6.57-8.51-14.67 0-4.37 2.47-10.22 4.76-14.7a2.38 2.38 0 0 1 1.65 1.21c2.56 4.5 6.4 12.28 6.4 17.75z"/><path class="cls-6" d="M132.33 221.58a21.17 21.17 0 0 1-2.31 10c-1.53 2.87-3.74 4.65-6.19 4.65-4.71 0-8.51-6.58-8.51-14.68 0-5.44 3.84-13.21 6.36-17.72a2.45 2.45 0 0 1 2.63-1.21 2.41 2.41 0 0 1 1.65 1.21c2.53 4.54 6.37 12.31 6.37 17.75z"/><path class="cls-7" d="M132.33 221.58a21.17 21.17 0 0 1-2.31 10 4.92 4.92 0 0 1-2 .41c-4.7 0-8.51-6.56-8.51-14.67 0-4.36 2.47-10.22 4.76-14.7a2.41 2.41 0 0 1 1.65 1.21c2.57 4.54 6.41 12.31 6.41 17.75z"/><path class="cls-6" d="M123.83 330.51a21.2 21.2 0 0 1-2.31 10c-1.54 2.87-3.75 4.65-6.2 4.65-4.71 0-8.51-6.58-8.51-14.68 0-5.44 3.84-13.22 6.37-17.72a2.44 2.44 0 0 1 2.62-1.21 2.36 2.36 0 0 1 1.65 1.21c2.55 4.53 6.38 12.31 6.38 17.75z"/><path class="cls-7" d="M123.83 330.51a21.2 21.2 0 0 1-2.31 10 5 5 0 0 1-2 .41c-4.7 0-8.51-6.57-8.51-14.67 0-4.37 2.48-10.22 4.76-14.7a2.36 2.36 0 0 1 1.65 1.21c2.58 4.53 6.41 12.31 6.41 17.75z"/><path class="cls-6" d="M297.93 178.38a21.24 21.24 0 0 1-2.31 10c-1.54 2.86-3.75 4.64-6.2 4.64-4.71 0-8.51-6.57-8.51-14.68 0-5.44 3.84-13.21 6.37-17.72a2.45 2.45 0 0 1 2.62-1.21 2.41 2.41 0 0 1 1.65 1.21c2.53 4.55 6.38 12.32 6.38 17.76z"/><path class="cls-7" d="M297.93 178.38a21.24 21.24 0 0 1-2.31 10 5.14 5.14 0 0 1-2 .4c-4.7 0-8.51-6.56-8.51-14.67 0-4.36 2.48-10.22 4.76-14.7a2.41 2.41 0 0 1 1.65 1.21c2.56 4.55 6.41 12.32 6.41 17.76z"/><path class="cls-6" d="M214.26 143.51a21.2 21.2 0 0 1-2.31 10c-1.54 2.87-3.75 4.65-6.2 4.65-4.71 0-8.5-6.58-8.5-14.68 0-5.44 3.83-13.22 6.36-17.72a2.44 2.44 0 0 1 2.62-1.21 2.36 2.36 0 0 1 1.65 1.21c2.53 4.53 6.38 12.31 6.38 17.75z"/><path class="cls-7" d="M214.26 143.51a21.2 21.2 0 0 1-2.31 10 5 5 0 0 1-2 .4c-4.7 0-8.51-6.56-8.51-14.66 0-4.37 2.48-10.22 4.76-14.7a2.36 2.36 0 0 1 1.65 1.21c2.56 4.53 6.41 12.31 6.41 17.75z"/><path class="cls-6" d="M424.55 343.57a21.24 21.24 0 0 1-2.31 10c-1.54 2.86-3.75 4.64-6.19 4.64-4.71 0-8.51-6.57-8.51-14.68 0-5.43 3.84-13.21 6.36-17.72a2.47 2.47 0 0 1 2.63-1.21 2.44 2.44 0 0 1 1.65 1.21c2.52 4.55 6.37 12.33 6.37 17.76z"/><path class="cls-7" d="M424.55 343.57a21.24 21.24 0 0 1-2.31 10 5.1 5.1 0 0 1-2 .4c-4.69 0-8.5-6.56-8.5-14.66 0-4.37 2.47-10.23 4.76-14.71a2.44 2.44 0 0 1 1.65 1.21c2.55 4.55 6.4 12.33 6.4 17.76z"/></svg>